<?xml version="1.0" encoding="UTF-8" standalone="no"?>
<!-- Created with Inkscape (http://www.inkscape.org/) -->

<svg
   xmlns:dc="http://purl.org/dc/elements/1.1/"
   xmlns:cc="http://creativecommons.org/ns#"
   xmlns:rdf="http://www.w3.org/1999/02/22-rdf-syntax-ns#"
   xmlns:svg="http://www.w3.org/2000/svg"
   xmlns="http://www.w3.org/2000/svg"
   xmlns:xlink="http://www.w3.org/1999/xlink"
   xmlns:sodipodi="http://sodipodi.sourceforge.net/DTD/sodipodi-0.dtd"
   xmlns:inkscape="http://www.inkscape.org/namespaces/inkscape"
   width="217.78075"
   height="217.81935"
   id="svg3782"
   version="1.1"
   inkscape:version="0.48.4 r9939"
   sodipodi:docname="SC.svg">
  <defs
     id="defs3784">
    <linearGradient
       id="linearGradient4780">
      <stop
         style="stop-color:#142114;stop-opacity:1;"
         offset="0"
         id="stop4782" />
      <stop
         style="stop-color:#142114;stop-opacity:0.71311474;"
         offset="1"
         id="stop4784" />
    </linearGradient>
    <radialGradient
       inkscape:collect="always"
       xlink:href="#linearGradient4762"
       id="radialGradient4770"
       cx="-6267.1875"
       cy="3526.5811"
       fx="-6267.1875"
       fy="3526.5811"
       r="74.201904"
       gradientTransform="translate(0,2.3369376e-6)"
       gradientUnits="userSpaceOnUse" />
    <linearGradient
       id="linearGradient4762">
      <stop
         style="stop-color:#802c27;stop-opacity:1;"
         offset="0"
         id="stop4764" />
      <stop
         style="stop-color:#802c27;stop-opacity:0.67213112;"
         offset="1"
         id="stop4766" />
    </linearGradient>
    <radialGradient
       inkscape:collect="always"
       xlink:href="#linearGradient4772"
       id="radialGradient4778"
       cx="-6267.1875"
       cy="3526.5811"
       fx="-6267.1875"
       fy="3526.5811"
       r="74.201904"
       gradientTransform="translate(0,2.336938e-6)"
       gradientUnits="userSpaceOnUse" />
    <linearGradient
       id="linearGradient4772">
      <stop
         style="stop-color:#802c27;stop-opacity:1;"
         offset="0"
         id="stop4774" />
      <stop
         style="stop-color:#802c27;stop-opacity:0.50819671;"
         offset="1"
         id="stop4776" />
    </linearGradient>
    <radialGradient
       inkscape:collect="always"
       xlink:href="#linearGradient4762-7"
       id="radialGradient4770-1"
       cx="-6267.1875"
       cy="3526.5811"
       fx="-6267.1875"
       fy="3526.5811"
       r="74.201904"
       gradientTransform="translate(0,2.3369386e-6)"
       gradientUnits="userSpaceOnUse" />
    <linearGradient
       id="linearGradient4762-7">
      <stop
         style="stop-color:#802c27;stop-opacity:1;"
         offset="0"
         id="stop4764-4" />
      <stop
         style="stop-color:#802c27;stop-opacity:0.67213112;"
         offset="1"
         id="stop4766-0" />
    </linearGradient>
  </defs>
  <sodipodi:namedview
     id="base"
     pagecolor="#ffffff"
     bordercolor="#666666"
     borderopacity="1.0"
     inkscape:pageopacity="0.0"
     inkscape:pageshadow="2"
     inkscape:zoom="0.7"
     inkscape:cx="431.64374"
     inkscape:cy="448.00733"
     inkscape:document-units="px"
     inkscape:current-layer="layer1"
     showgrid="false"
     fit-margin-top="0"
     fit-margin-left="0"
     fit-margin-right="0"
     fit-margin-bottom="0"
     inkscape:window-width="1366"
     inkscape:window-height="705"
     inkscape:window-x="-8"
     inkscape:window-y="-8"
     inkscape:window-maximized="1" />
  <metadata
     id="metadata3787">
    <rdf:RDF>
      <cc:Work
         rdf:about="">
        <dc:format>image/svg+xml</dc:format>
        <dc:type
           rdf:resource="http://purl.org/dc/dcmitype/StillImage" />
        <dc:title></dc:title>
      </cc:Work>
    </rdf:RDF>
  </metadata>
  <g
     inkscape:label="Calque 1"
     inkscape:groupmode="layer"
     id="layer1"
     transform="translate(844.80043,-148.48877)">
    <g
       id="g4733"
       transform="translate(4473.4689,-3744.9583)">
      <path
         transform="matrix(1.0737717,0,0,1.0737717,1842.3569,-164.71955)"
         sodipodi:open="true"
         sodipodi:end="8.7535563"
         sodipodi:start="2.4703741"
         d="m -6645.1199,3942.6332 c -34.1554,-43.004 -26.9823,-105.554 16.0217,-139.7094 43.0039,-34.1554 105.5539,-26.9823 139.7093,16.0217 34.1554,43.0039 26.9823,105.5539 -16.0217,139.7093 -43.0038,34.1553 -105.5536,26.9823 -139.7091,-16.0214"
         sodipodi:ry="99.43689"
         sodipodi:rx="99.43689"
         sodipodi:cy="3880.7893"
         sodipodi:cx="-6567.2544"
         id="path4484-4-4"
         style="fill:#cf2313;fill-opacity:1;stroke:#802c27;stroke-width:3.98286915;stroke-linecap:round;stroke-linejoin:bevel;stroke-miterlimit:4;stroke-opacity:1;stroke-dasharray:none"
         sodipodi:type="arc" />
      <path
         sodipodi:type="arc"
         style="fill:#ffeccf;fill-opacity:1;stroke:url(#radialGradient4770-1);stroke-width:1.52306604;stroke-miterlimit:4;stroke-opacity:1;stroke-dasharray:none"
         id="path5876-6-0-8"
         sodipodi:cx="-6267.1875"
         sodipodi:cy="3526.5811"
         sodipodi:rx="73.4375"
         sodipodi:ry="73.4375"
         d="m -6324.6938,3572.2548 c -25.2249,-31.7598 -19.9273,-77.9551 11.8325,-103.18 31.7599,-25.225 77.9552,-19.9274 103.1801,11.8325 25.2249,31.7598 19.9273,77.9551 -11.8325,103.18 -31.7598,25.2249 -77.955,19.9274 -103.1799,-11.8323"
         transform="matrix(1.1470284,0,0,1.1470284,1979.3019,-42.726445)"
         sodipodi:start="2.4703741"
         sodipodi:end="8.7535563"
         sodipodi:open="true" />
      <path
         inkscape:export-ydpi="37"
         inkscape:export-xdpi="37"
         inkscape:export-filename="C:\Users\Benjamin\Desktop\Geoponts\Logo\Tries\marqueurs.png"
         style="fill:#cf2313;fill-opacity:1;stroke:none"
         d="m -5211.7509,3950.023 c -12.5121,0.1931 -14.3842,2.0365 -14.3842,11.4107 l 0,4.8541 -12.961,0 c -20.0822,0 -19.5686,-0.644 -19.5686,23.5331 l 0,17.1288 20.7376,0 20.7377,0 0,-4.0662 0,-4.0662 7.7257,0 7.7258,0 0,4.0662 0,4.0662 20.7884,0 20.7631,0 -0.2288,-17.9675 -0.2541,-17.9675 -2.6684,-2.3635 -2.643,-2.3634 -13.3168,0 -13.3168,0 -0.3304,-5.7944 c -0.2998,-5.3054 -0.5429,-5.9834 -2.948,-8.1324 -2.6074,-2.3296 -2.6824,-2.338 -13.2152,-2.338 -0.9314,0 -1.8089,-0.013 -2.643,0 z m -5.4385,8.1324 7.7257,0 7.7258,0 0,4.0662 0,4.0662 -7.7258,0 -7.7257,0 0,-4.0662 0,-4.0662 z m -41.4753,56.9267 0.025,9.149 c 0.031,9.8157 0.754,12.2265 4.1425,14.1046 1.5431,0.8553 10.8647,1.0699 45.2365,1.0928 l 43.2796,0.051 2.6684,-2.3889 2.643,-2.3635 0.2796,-9.8351 0.2541,-9.8097 -49.2518,0 -49.2772,0 z"
         id="path4427-9-5-4-9-8"
         inkscape:connector-curvature="0" />
    </g>
  </g>
</svg>
