<?xml version="1.0" encoding="UTF-8" standalone="no"?>
<!-- Created with Inkscape (http://www.inkscape.org/) -->

<svg
   xmlns:dc="http://purl.org/dc/elements/1.1/"
   xmlns:cc="http://creativecommons.org/ns#"
   xmlns:rdf="http://www.w3.org/1999/02/22-rdf-syntax-ns#"
   xmlns:svg="http://www.w3.org/2000/svg"
   xmlns="http://www.w3.org/2000/svg"
   xmlns:xlink="http://www.w3.org/1999/xlink"
   xmlns:sodipodi="http://sodipodi.sourceforge.net/DTD/sodipodi-0.dtd"
   xmlns:inkscape="http://www.inkscape.org/namespaces/inkscape"
   width="216.80948"
   height="379.54034"
   id="svg3782"
   version="1.1"
   inkscape:version="0.48.4 r9939"
   sodipodi:docname="SC.svg">
  <defs
     id="defs3784">
    <linearGradient
       id="linearGradient4780">
      <stop
         style="stop-color:#142114;stop-opacity:1;"
         offset="0"
         id="stop4782" />
      <stop
         style="stop-color:#142114;stop-opacity:0.71311474;"
         offset="1"
         id="stop4784" />
    </linearGradient>
    <linearGradient
       id="linearGradient4762">
      <stop
         style="stop-color:#802c27;stop-opacity:1;"
         offset="0"
         id="stop4764" />
      <stop
         style="stop-color:#802c27;stop-opacity:0.67213112;"
         offset="1"
         id="stop4766" />
    </linearGradient>
    <linearGradient
       id="linearGradient4772">
      <stop
         style="stop-color:#802c27;stop-opacity:1;"
         offset="0"
         id="stop4774" />
      <stop
         style="stop-color:#802c27;stop-opacity:0.50819671;"
         offset="1"
         id="stop4776" />
    </linearGradient>
    <linearGradient
       id="linearGradient4762-7">
      <stop
         style="stop-color:#802c27;stop-opacity:1;"
         offset="0"
         id="stop4764-4" />
      <stop
         style="stop-color:#802c27;stop-opacity:0.67213112;"
         offset="1"
         id="stop4766-0" />
    </linearGradient>
    <radialGradient
       inkscape:collect="always"
       xlink:href="#linearGradient4780-9"
       id="radialGradient4786"
       cx="-6267.1875"
       cy="3526.5811"
       fx="-6267.1875"
       fy="3526.5811"
       r="73.940361"
       gradientTransform="translate(0,2.3452045e-6)"
       gradientUnits="userSpaceOnUse" />
    <linearGradient
       id="linearGradient4780-9">
      <stop
         style="stop-color:#142114;stop-opacity:1;"
         offset="0"
         id="stop4782-4" />
      <stop
         style="stop-color:#142114;stop-opacity:0.71311474;"
         offset="1"
         id="stop4784-8" />
    </linearGradient>
  </defs>
  <sodipodi:namedview
     id="base"
     pagecolor="#ffffff"
     bordercolor="#666666"
     borderopacity="1.0"
     inkscape:pageopacity="0.0"
     inkscape:pageshadow="2"
     inkscape:zoom="0.7"
     inkscape:cx="5.9042924"
     inkscape:cy="485.02629"
     inkscape:document-units="px"
     inkscape:current-layer="layer1"
     showgrid="false"
     fit-margin-top="0"
     fit-margin-left="0"
     fit-margin-right="0"
     fit-margin-bottom="0"
     inkscape:window-width="1366"
     inkscape:window-height="705"
     inkscape:window-x="-8"
     inkscape:window-y="-8"
     inkscape:window-maximized="1" />
  <metadata
     id="metadata3787">
    <rdf:RDF>
      <cc:Work
         rdf:about="">
        <dc:format>image/svg+xml</dc:format>
        <dc:type
           rdf:resource="http://purl.org/dc/dcmitype/StillImage" />
        <dc:title></dc:title>
      </cc:Work>
    </rdf:RDF>
  </metadata>
  <g
     inkscape:label="Calque 1"
     inkscape:groupmode="layer"
     id="layer1"
     transform="translate(419.06098,204.7847)">
    <path
       inkscape:export-ydpi="9"
       inkscape:export-xdpi="9"
       style="fill:#324e32;fill-opacity:1;stroke:#142114;stroke-width:4.19999981;stroke-miterlimit:4;stroke-opacity:1;stroke-dasharray:none"
       d="m -311.48759,-202.67811 c -30.7516,-0.02 -61.1988,13.5199 -81.8115,39.4726 -11.5941,14.5979 -18.6085,31.3362 -21.3203,48.5237 -0.017,0.067 -0.034,0.1341 -0.05,0.2012 -5.7024,23.080202 -1.4424,51.646002 20.566,86.437502 70.9988,112.2364 66.8222,134.860398 77.1854,194.613098 1.1132,6.4186 2.6309,6.0844 5.6821,6.0844 3.3955,0 5.665,-0.2209 6.8386,-6.0844 10.3632,-59.7528 6.1866,-82.376698 77.1854,-194.613098 22.0085,-34.7915 26.2684,-63.3573 20.566,-86.437502 -0.017,-0.067 -0.034,-0.1341 -0.05,-0.2012 -2.7117,-17.1875 -9.7261,-33.9258 -21.3203,-48.5237 -20.7929,-26.1796 -51.5906,-39.7315 -82.616,-39.4726 -0.2858,0 -0.5691,1e-4 -0.8548,0 z"
       id="path3062-6-9-6-17-7-1-1-9-9-6-2"
       inkscape:connector-curvature="0"
       sodipodi:nodetypes="csccssscsccscsc" />
    <path
       sodipodi:open="true"
       sodipodi:end="8.7535563"
       sodipodi:start="2.4703741"
       transform="matrix(1.1470284,0,0,1.1470284,6878.0454,-4140.8754)"
       d="m -6324.6938,3572.2548 c -25.2249,-31.7598 -19.9273,-77.9551 11.8325,-103.18 31.7599,-25.225 77.9552,-19.9274 103.1801,11.8325 25.2249,31.7598 19.9273,77.9551 -11.8325,103.18 -31.7598,25.2249 -77.955,19.9274 -103.1799,-11.8323"
       sodipodi:ry="73.4375"
       sodipodi:rx="73.4375"
       sodipodi:cy="3526.5811"
       sodipodi:cx="-6267.1875"
       id="path5876-9"
       style="fill:#ddf7dd;fill-opacity:1;stroke:#142114;stroke-opacity:1"
       sodipodi:type="arc" />
    <g
       transform="matrix(1.7414536,0,0,1.7414536,2823.8131,-407.95311)"
       style="fill:#324e32;fill-opacity:1;stroke:none"
       id="g4324-0-2-4-5"
       inkscape:export-filename="C:\Users\Benjamin\Desktop\Geoponts\Logo\Tries\marqueurs.png"
       inkscape:export-xdpi="37"
       inkscape:export-ydpi="37">
      <path
         style="fill:#324e32;fill-opacity:1;stroke:none"
         d="m -1821.5071,183.85828 0,8.92722 21.0365,9.28078 21.0364,-9.28078 0,-9.01561 -21.0364,10.16466 z"
         id="path4316-6-6-4-9"
         inkscape:connector-curvature="0" />
      <path
         style="fill:#324e32;fill-opacity:1;stroke:none"
         d="m -1830.3459,205.24826 7.9549,7.95495 0,-11.66726 -5.3916,-7.42463 0,-15.20279 4.9497,-3.35876 22.8042,10.42983 36.5044,-16.61701 -37.007,-16.46916 -37.4375,16.53125 7.8438,3.5 -2.9375,3.4375 0,17.75 -5.9375,7.375 0,11.625 z"
         id="path4318-1-5-0-6"
         inkscape:connector-curvature="0" />
    </g>
  </g>
</svg>
