<?xml version="1.0" encoding="UTF-8" standalone="no"?>
<!-- Created with Inkscape (http://www.inkscape.org/) -->

<svg
   xmlns:dc="http://purl.org/dc/elements/1.1/"
   xmlns:cc="http://creativecommons.org/ns#"
   xmlns:rdf="http://www.w3.org/1999/02/22-rdf-syntax-ns#"
   xmlns:svg="http://www.w3.org/2000/svg"
   xmlns="http://www.w3.org/2000/svg"
   xmlns:xlink="http://www.w3.org/1999/xlink"
   xmlns:sodipodi="http://sodipodi.sourceforge.net/DTD/sodipodi-0.dtd"
   xmlns:inkscape="http://www.inkscape.org/namespaces/inkscape"
   width="216.78345"
   height="379.54037"
   id="svg3782"
   version="1.1"
   inkscape:version="0.48.4 r9939"
   sodipodi:docname="SC.svg">
  <defs
     id="defs3784">
    <linearGradient
       id="linearGradient4780">
      <stop
         style="stop-color:#142114;stop-opacity:1;"
         offset="0"
         id="stop4782" />
      <stop
         style="stop-color:#142114;stop-opacity:0.71311474;"
         offset="1"
         id="stop4784" />
    </linearGradient>
    <linearGradient
       id="linearGradient4762">
      <stop
         style="stop-color:#802c27;stop-opacity:1;"
         offset="0"
         id="stop4764" />
      <stop
         style="stop-color:#802c27;stop-opacity:0.67213112;"
         offset="1"
         id="stop4766" />
    </linearGradient>
    <linearGradient
       id="linearGradient4772">
      <stop
         style="stop-color:#802c27;stop-opacity:1;"
         offset="0"
         id="stop4774" />
      <stop
         style="stop-color:#802c27;stop-opacity:0.50819671;"
         offset="1"
         id="stop4776" />
    </linearGradient>
    <linearGradient
       id="linearGradient4762-7">
      <stop
         style="stop-color:#802c27;stop-opacity:1;"
         offset="0"
         id="stop4764-4" />
      <stop
         style="stop-color:#802c27;stop-opacity:0.67213112;"
         offset="1"
         id="stop4766-0" />
    </linearGradient>
    <radialGradient
       inkscape:collect="always"
       xlink:href="#linearGradient4780-9"
       id="radialGradient4786"
       cx="-6267.1875"
       cy="3526.5811"
       fx="-6267.1875"
       fy="3526.5811"
       r="73.940361"
       gradientTransform="translate(0,2.3452045e-6)"
       gradientUnits="userSpaceOnUse" />
    <linearGradient
       id="linearGradient4780-9">
      <stop
         style="stop-color:#142114;stop-opacity:1;"
         offset="0"
         id="stop4782-4" />
      <stop
         style="stop-color:#142114;stop-opacity:0.71311474;"
         offset="1"
         id="stop4784-8" />
    </linearGradient>
  </defs>
  <sodipodi:namedview
     id="base"
     pagecolor="#ffffff"
     bordercolor="#666666"
     borderopacity="1.0"
     inkscape:pageopacity="0.0"
     inkscape:pageshadow="2"
     inkscape:zoom="0.7"
     inkscape:cx="-247.12696"
     inkscape:cy="572.79066"
     inkscape:document-units="px"
     inkscape:current-layer="layer1"
     showgrid="false"
     fit-margin-top="0"
     fit-margin-left="0"
     fit-margin-right="0"
     fit-margin-bottom="0"
     inkscape:window-width="1366"
     inkscape:window-height="705"
     inkscape:window-x="-8"
     inkscape:window-y="-8"
     inkscape:window-maximized="1" />
  <metadata
     id="metadata3787">
    <rdf:RDF>
      <cc:Work
         rdf:about="">
        <dc:format>image/svg+xml</dc:format>
        <dc:type
           rdf:resource="http://purl.org/dc/dcmitype/StillImage" />
        <dc:title></dc:title>
      </cc:Work>
    </rdf:RDF>
  </metadata>
  <g
     inkscape:label="Calque 1"
     inkscape:groupmode="layer"
     id="layer1"
     transform="translate(166.02973,-230.71529)">
    <path
       inkscape:export-ydpi="9"
       inkscape:export-xdpi="9"
       style="fill:#cf2313;fill-opacity:1;stroke:#802c27;stroke-width:4.19999981;stroke-miterlimit:4;stroke-opacity:1;stroke-dasharray:none"
       d="m -58.462366,232.80407 c -30.7516,-0.02 -61.198804,13.51979 -81.811504,39.47259 -11.5941,14.5977 -18.6085,31.336 -21.3203,48.5236 -0.017,0.067 -0.034,0.1342 -0.05,0.2012 -5.7024,23.0801 -1.4424,51.646 20.566,86.4375 70.998804,112.2364 66.822204,134.86031 77.185404,194.61311 1.1132,6.4186 2.6309,6.0844 5.6821,6.0844 3.3955,0 5.665,-0.2209 6.8386,-6.0844 10.3632,-59.7528 6.1866,-82.37671 77.1854,-194.61311 22.0085,-34.7915 26.2684,-63.3574 20.566,-86.4375 -0.017,-0.067 -0.034,-0.134 -0.05,-0.2012 -2.7117,-17.1876 -9.7261,-33.9259 -21.3203,-48.5236 -20.7929003,-26.1797 -51.5906,-39.73169 -82.616,-39.47259 -0.2858,0 -0.5691,0 -0.8548,0 z"
       id="path3062-6-9-6-17-7-1-1-9-9-6-5"
       inkscape:connector-curvature="0"
       sodipodi:nodetypes="csccssscsccscsc" />
    <path
       sodipodi:open="true"
       sodipodi:end="8.7535563"
       sodipodi:start="2.4703741"
       transform="matrix(1.1470284,0,0,1.1470284,7131.0705,-3705.3934)"
       d="m -6324.6938,3572.2548 c -25.2249,-31.7598 -19.9273,-77.9551 11.8325,-103.18 31.7599,-25.225 77.9552,-19.9274 103.1801,11.8325 25.2249,31.7598 19.9273,77.9551 -11.8325,103.18 -31.7598,25.2249 -77.955,19.9274 -103.1799,-11.8323"
       sodipodi:ry="73.4375"
       sodipodi:rx="73.4375"
       sodipodi:cy="3526.5811"
       sodipodi:cx="-6267.1875"
       id="path5876-0"
       style="fill:#ffeccf;fill-opacity:1;stroke:#802c27;stroke-opacity:1"
       sodipodi:type="arc" />
    <path
       inkscape:connector-curvature="0"
       id="path4427-9-5-9"
       d="m -59.335266,290.34716 c -12.5121,0.1931 -14.3842,2.0365 -14.3842,11.4107 l 0,4.8541 -12.961,0 c -20.082204,0 -19.568604,-0.644 -19.568604,23.5331 l 0,17.1288 20.737604,0 20.7377,0 0,-4.0662 0,-4.0662 7.7257,0 7.7258,0 0,4.0662 0,4.0662 20.7884,0 20.7630997,0 -0.2288,-17.9675 -0.2541,-17.9675 -2.6683997,-2.3635 -2.643,-2.3634 -13.3168,0 -13.3168,0 -0.3304,-5.7944 c -0.2998,-5.3054 -0.5429,-5.9834 -2.948,-8.1324 -2.6074,-2.3296 -2.6824,-2.338 -13.2152,-2.338 -0.9314,0 -1.8089,-0.013 -2.643,0 z m -5.4385,8.1324 7.7257,0 7.7258,0 0,4.0662 0,4.0662 -7.7258,0 -7.7257,0 0,-4.0662 0,-4.0662 z m -41.475304,56.9267 0.025,9.149 c 0.031,9.8157 0.754,12.2265 4.1425,14.1046 1.5431,0.8553 10.864704,1.0699 45.236504,1.0928 l 43.2796,0.051 2.6684,-2.3889 2.6429997,-2.3635 0.2796,-9.8351 0.2541,-9.8097 -49.2517997,0 -49.277204,0 z"
       style="fill:#cf2313;fill-opacity:1;stroke:none"
       inkscape:export-filename="C:\Users\Benjamin\Desktop\Geoponts\Logo\Tries\marqueurs.png"
       inkscape:export-xdpi="37"
       inkscape:export-ydpi="37" />
  </g>
</svg>
